<svg width="550" height="217" viewBox="0 0 550 217" fill="none" xmlns="http://www.w3.org/2000/svg">
<rect x="121.121" y="114.121" width="63.8788" height="63.8788" rx="8" stroke="#B721FF" stroke-width="4"/>
<rect x="49" y="114" width="63.8788" height="63.8788" rx="8" stroke="#21D4FD" stroke-width="4"/>
<rect x="49" y="42" width="63.8788" height="63.8788" rx="8" stroke="#6A7DFE" stroke-width="4"/>
<path d="M123.4 103V47H131.4V96.04H161.72V103H123.4ZM193.163 103.64C185.803 103.64 180.016 101.533 175.803 97.32C171.589 93.1067 169.483 86.9467 169.483 78.84V47H177.483V78.52C177.483 84.76 178.843 89.32 181.562 92.2C184.336 95.08 188.229 96.52 193.243 96.52C198.309 96.52 202.203 95.08 204.923 92.2C207.696 89.32 209.083 84.76 209.083 78.52V47H216.843V78.84C216.843 86.9467 214.736 93.1067 210.523 97.32C206.363 101.533 200.576 103.64 193.163 103.64ZM258.284 103.64C254.017 103.64 250.07 102.947 246.444 101.56C242.87 100.12 239.75 98.12 237.084 95.56C234.47 92.9467 232.417 89.9067 230.924 86.44C229.43 82.9733 228.684 79.16 228.684 75C228.684 70.84 229.43 67.0267 230.924 63.56C232.417 60.0933 234.497 57.08 237.164 54.52C239.83 51.9067 242.95 49.9067 246.524 48.52C250.15 47.08 254.097 46.36 258.364 46.36C262.684 46.36 266.657 47.1067 270.284 48.6C273.964 50.04 277.084 52.2 279.644 55.08L274.444 60.12C272.31 57.88 269.91 56.2267 267.244 55.16C264.577 54.04 261.724 53.48 258.684 53.48C255.537 53.48 252.604 54.0133 249.884 55.08C247.217 56.1467 244.897 57.64 242.924 59.56C240.95 61.48 239.404 63.7733 238.284 66.44C237.217 69.0533 236.684 71.9067 236.684 75C236.684 78.0933 237.217 80.9733 238.284 83.64C239.404 86.2533 240.95 88.52 242.924 90.44C244.897 92.36 247.217 93.8533 249.884 94.92C252.604 95.9867 255.537 96.52 258.684 96.52C261.724 96.52 264.577 95.9867 267.244 94.92C269.91 93.8 272.31 92.0933 274.444 89.8L279.644 94.84C277.084 97.72 273.964 99.9067 270.284 101.4C266.657 102.893 262.657 103.64 258.284 103.64ZM281.248 103L306.608 47H314.528L339.968 103H331.568L308.928 51.48H312.128L289.488 103H281.248ZM292.048 89L294.208 82.6H325.728L328.048 89H292.048ZM364.642 103.64C360.375 103.64 356.295 103 352.402 101.72C348.509 100.387 345.442 98.68 343.202 96.6L346.162 90.36C348.295 92.2267 351.015 93.7733 354.322 95C357.629 96.2267 361.069 96.84 364.642 96.84C367.895 96.84 370.535 96.4667 372.562 95.72C374.589 94.9733 376.082 93.96 377.042 92.68C378.002 91.3467 378.482 89.8533 378.482 88.2C378.482 86.28 377.842 84.7333 376.562 83.56C375.335 82.3867 373.709 81.4533 371.682 80.76C369.709 80.0133 367.522 79.3733 365.122 78.84C362.722 78.3067 360.295 77.6933 357.842 77C355.442 76.2533 353.229 75.32 351.202 74.2C349.229 73.08 347.629 71.5867 346.402 69.72C345.175 67.8 344.562 65.3467 344.562 62.36C344.562 59.48 345.309 56.84 346.802 54.44C348.349 51.9867 350.695 50.04 353.842 48.6C357.042 47.1067 361.095 46.36 366.002 46.36C369.255 46.36 372.482 46.7867 375.682 47.64C378.882 48.4933 381.655 49.72 384.002 51.32L381.362 57.72C378.962 56.12 376.429 54.9733 373.762 54.28C371.095 53.5333 368.509 53.16 366.002 53.16C362.855 53.16 360.269 53.56 358.242 54.36C356.215 55.16 354.722 56.2267 353.762 57.56C352.855 58.8933 352.402 60.3867 352.402 62.04C352.402 64.0133 353.015 65.5867 354.242 66.76C355.522 67.9333 357.149 68.8667 359.122 69.56C361.149 70.2533 363.362 70.8933 365.762 71.48C368.162 72.0133 370.562 72.6267 372.962 73.32C375.415 74.0133 377.629 74.92 379.602 76.04C381.629 77.16 383.255 78.6533 384.482 80.52C385.709 82.3867 386.322 84.7867 386.322 87.72C386.322 90.5467 385.549 93.1867 384.002 95.64C382.455 98.04 380.055 99.9867 376.802 101.48C373.602 102.92 369.549 103.64 364.642 103.64Z" fill="black"/>
<path d="M195.4 180V124H220.52C226.973 124 231.933 125.307 235.4 127.92C238.867 130.48 240.6 134 240.6 138.48C240.6 141.52 239.907 144.08 238.52 146.16C237.187 148.24 235.373 149.84 233.08 150.96C230.787 152.08 228.307 152.64 225.64 152.64L227.08 150.24C230.28 150.24 233.107 150.8 235.56 151.92C238.013 153.04 239.96 154.693 241.4 156.88C242.84 159.013 243.56 161.68 243.56 164.88C243.56 169.68 241.747 173.413 238.12 176.08C234.547 178.693 229.213 180 222.12 180H195.4ZM203.4 173.52H221.8C226.227 173.52 229.613 172.773 231.96 171.28C234.307 169.787 235.48 167.44 235.48 164.24C235.48 160.987 234.307 158.613 231.96 157.12C229.613 155.627 226.227 154.88 221.8 154.88H202.68V148.4H219.8C223.853 148.4 227 147.653 229.24 146.16C231.48 144.667 232.6 142.427 232.6 139.44C232.6 136.453 231.48 134.213 229.24 132.72C227 131.227 223.853 130.48 219.8 130.48H203.4V173.52ZM255.947 180V124H277.787C282.694 124 286.88 124.773 290.347 126.32C293.814 127.867 296.48 130.107 298.347 133.04C300.214 135.973 301.147 139.467 301.147 143.52C301.147 147.573 300.214 151.067 298.347 154C296.48 156.88 293.814 159.093 290.347 160.64C286.88 162.187 282.694 162.96 277.787 162.96H260.347L263.947 159.28V180H255.947ZM293.387 180L279.147 159.68H287.707L302.107 180H293.387ZM263.947 160.08L260.347 156.16H277.547C282.667 156.16 286.534 155.067 289.147 152.88C291.814 150.64 293.147 147.52 293.147 143.52C293.147 139.52 291.814 136.427 289.147 134.24C286.534 132.053 282.667 130.96 277.547 130.96H260.347L263.947 126.96V160.08ZM305.592 180L330.952 124H338.872L364.312 180H355.912L333.272 128.48H336.472L313.832 180H305.592ZM316.392 166L318.552 159.6H350.072L352.392 166H316.392ZM397.164 180.64C392.844 180.64 388.871 179.947 385.244 178.56C381.618 177.12 378.471 175.12 375.804 172.56C373.138 169.947 371.058 166.907 369.564 163.44C368.071 159.973 367.324 156.16 367.324 152C367.324 147.84 368.071 144.027 369.564 140.56C371.058 137.093 373.138 134.08 375.804 131.52C378.524 128.907 381.698 126.907 385.324 125.52C388.951 124.08 392.951 123.36 397.324 123.36C401.751 123.36 405.804 124.08 409.484 125.52C413.164 126.96 416.284 129.12 418.844 132L413.884 136.96C411.591 134.72 409.084 133.093 406.364 132.08C403.698 131.013 400.791 130.48 397.644 130.48C394.444 130.48 391.458 131.013 388.684 132.08C385.964 133.147 383.591 134.64 381.564 136.56C379.591 138.48 378.044 140.773 376.924 143.44C375.858 146.053 375.324 148.907 375.324 152C375.324 155.04 375.858 157.893 376.924 160.56C378.044 163.173 379.591 165.467 381.564 167.44C383.591 169.36 385.964 170.853 388.684 171.92C391.404 172.987 394.364 173.52 397.564 173.52C400.551 173.52 403.404 173.067 406.124 172.16C408.898 171.2 411.458 169.627 413.804 167.44L418.364 173.52C415.591 175.867 412.338 177.653 408.604 178.88C404.924 180.053 401.111 180.64 397.164 180.64ZM410.684 172.48V151.68H418.364V173.52L410.684 172.48ZM425.201 180L450.561 124H458.481L483.921 180H475.521L452.881 128.48H456.081L433.441 180H425.201ZM436.001 166L438.161 159.6H469.681L472.001 166H436.001Z" fill="black"/>
</svg>
