<svg width="550" height="217" viewBox="0 0 550 217" fill="none" xmlns="http://www.w3.org/2000/svg">
<path d="M88 104H164C166.209 104 168 105.791 168 108V180C168 182.209 166.209 184 164 184H88V104Z" fill="#B721FF"/>
<path d="M8 104H88V184H12C9.79086 184 8 182.209 8 180V104Z" fill="#21D4FD"/>
<path d="M8 28C8 25.7909 9.79086 24 12 24H84C86.2091 24 88 25.7909 88 28V104H8V28Z" fill="#6A7DFE"/>
<path d="M98.5 97V27H108.5V88.3H146.4V97H98.5ZM185.703 97.8C176.503 97.8 169.27 95.1667 164.003 89.9C158.736 84.6333 156.103 76.9333 156.103 66.8V27H166.103V66.4C166.103 74.2 167.803 79.9 171.203 83.5C174.67 87.1 179.536 88.9 185.803 88.9C192.136 88.9 197.003 87.1 200.403 83.5C203.87 79.9 205.603 74.2 205.603 66.4V27H215.303V66.8C215.303 76.9333 212.67 84.6333 207.403 89.9C202.203 95.1667 194.97 97.8 185.703 97.8ZM267.105 97.8C261.771 97.8 256.838 96.9333 252.305 95.2C247.838 93.4 243.938 90.9 240.605 87.7C237.338 84.4333 234.771 80.6333 232.905 76.3C231.038 71.9667 230.105 67.2 230.105 62C230.105 56.8 231.038 52.0333 232.905 47.7C234.771 43.3667 237.371 39.6 240.705 36.4C244.038 33.1333 247.938 30.6333 252.405 28.9C256.938 27.1 261.871 26.2 267.205 26.2C272.605 26.2 277.571 27.1333 282.105 29C286.705 30.8 290.605 33.5 293.805 37.1L287.305 43.4C284.638 40.6 281.638 38.5333 278.305 37.2C274.971 35.8 271.405 35.1 267.605 35.1C263.671 35.1 260.005 35.7667 256.605 37.1C253.271 38.4333 250.371 40.3 247.905 42.7C245.438 45.1 243.505 47.9667 242.105 51.3C240.771 54.5667 240.105 58.1333 240.105 62C240.105 65.8667 240.771 69.4667 242.105 72.8C243.505 76.0667 245.438 78.9 247.905 81.3C250.371 83.7 253.271 85.5667 256.605 86.9C260.005 88.2333 263.671 88.9 267.605 88.9C271.405 88.9 274.971 88.2333 278.305 86.9C281.638 85.5 284.638 83.3667 287.305 80.5L293.805 86.8C290.605 90.4 286.705 93.1333 282.105 95C277.571 96.8667 272.571 97.8 267.105 97.8ZM295.81 97L327.51 27H337.41L369.21 97H358.71L330.41 32.6H334.41L306.11 97H295.81ZM309.31 79.5L312.01 71.5H351.41L354.31 79.5H309.31ZM400.052 97.8C394.719 97.8 389.619 97 384.752 95.4C379.886 93.7333 376.052 91.6 373.252 89L376.952 81.2C379.619 83.5333 383.019 85.4667 387.152 87C391.286 88.5333 395.586 89.3 400.052 89.3C404.119 89.3 407.419 88.8333 409.952 87.9C412.486 86.9667 414.352 85.7 415.552 84.1C416.752 82.4333 417.352 80.5667 417.352 78.5C417.352 76.1 416.552 74.1667 414.952 72.7C413.419 71.2333 411.386 70.0667 408.852 69.2C406.386 68.2667 403.652 67.4667 400.652 66.8C397.652 66.1333 394.619 65.3667 391.552 64.5C388.552 63.5667 385.786 62.4 383.252 61C380.786 59.6 378.786 57.7333 377.252 55.4C375.719 53 374.952 49.9333 374.952 46.2C374.952 42.6 375.886 39.3 377.752 36.3C379.686 33.2333 382.619 30.8 386.552 29C390.552 27.1333 395.619 26.2 401.752 26.2C405.819 26.2 409.852 26.7333 413.852 27.8C417.852 28.8667 421.319 30.4 424.252 32.4L420.952 40.4C417.952 38.4 414.786 36.9667 411.452 36.1C408.119 35.1667 404.886 34.7 401.752 34.7C397.819 34.7 394.586 35.2 392.052 36.2C389.519 37.2 387.652 38.5333 386.452 40.2C385.319 41.8667 384.752 43.7333 384.752 45.8C384.752 48.2667 385.519 50.2333 387.052 51.7C388.652 53.1667 390.686 54.3333 393.152 55.2C395.686 56.0667 398.452 56.8667 401.452 57.6C404.452 58.2667 407.452 59.0333 410.452 59.9C413.519 60.7667 416.286 61.9 418.752 63.3C421.286 64.7 423.319 66.5667 424.852 68.9C426.386 71.2333 427.152 74.2333 427.152 77.9C427.152 81.4333 426.186 84.7333 424.252 87.8C422.319 90.8 419.319 93.2333 415.252 95.1C411.252 96.9 406.186 97.8 400.052 97.8Z" fill="#EEEEEE"/>
<path d="M178.5 184V114H209.9C217.967 114 224.167 115.633 228.5 118.9C232.833 122.1 235 126.5 235 132.1C235 135.9 234.133 139.1 232.4 141.7C230.733 144.3 228.467 146.3 225.6 147.7C222.733 149.1 219.633 149.8 216.3 149.8L218.1 146.8C222.1 146.8 225.633 147.5 228.7 148.9C231.767 150.3 234.2 152.367 236 155.1C237.8 157.767 238.7 161.1 238.7 165.1C238.7 171.1 236.433 175.767 231.9 179.1C227.433 182.367 220.767 184 211.9 184H178.5ZM188.5 175.9H211.5C217.033 175.9 221.267 174.967 224.2 173.1C227.133 171.233 228.6 168.3 228.6 164.3C228.6 160.233 227.133 157.267 224.2 155.4C221.267 153.533 217.033 152.6 211.5 152.6H187.6V144.5H209C214.067 144.5 218 143.567 220.8 141.7C223.6 139.833 225 137.033 225 133.3C225 129.567 223.6 126.767 220.8 124.9C218 123.033 214.067 122.1 209 122.1H188.5V175.9ZM254.184 184V114H281.484C287.617 114 292.85 114.967 297.184 116.9C301.517 118.833 304.85 121.633 307.184 125.3C309.517 128.967 310.684 133.333 310.684 138.4C310.684 143.467 309.517 147.833 307.184 151.5C304.85 155.1 301.517 157.867 297.184 159.8C292.85 161.733 287.617 162.7 281.484 162.7H259.684L264.184 158.1V184H254.184ZM300.984 184L283.184 158.6H293.884L311.884 184H300.984ZM264.184 159.1L259.684 154.2H281.184C287.584 154.2 292.417 152.833 295.684 150.1C299.017 147.3 300.684 143.4 300.684 138.4C300.684 133.4 299.017 129.533 295.684 126.8C292.417 124.067 287.584 122.7 281.184 122.7H259.684L264.184 117.7V159.1ZM316.24 184L347.94 114H357.84L389.64 184H379.14L350.84 119.6H354.84L326.54 184H316.24ZM329.74 166.5L332.44 158.5H371.84L374.74 166.5H329.74ZM430.705 184.8C425.305 184.8 420.339 183.933 415.805 182.2C411.272 180.4 407.339 177.9 404.005 174.7C400.672 171.433 398.072 167.633 396.205 163.3C394.339 158.967 393.405 154.2 393.405 149C393.405 143.8 394.339 139.033 396.205 134.7C398.072 130.367 400.672 126.6 404.005 123.4C407.405 120.133 411.372 117.633 415.905 115.9C420.439 114.1 425.439 113.2 430.905 113.2C436.439 113.2 441.505 114.1 446.105 115.9C450.705 117.7 454.605 120.4 457.805 124L451.605 130.2C448.739 127.4 445.605 125.367 442.205 124.1C438.872 122.767 435.239 122.1 431.305 122.1C427.305 122.1 423.572 122.767 420.105 124.1C416.705 125.433 413.739 127.3 411.205 129.7C408.739 132.1 406.805 134.967 405.405 138.3C404.072 141.567 403.405 145.133 403.405 149C403.405 152.8 404.072 156.367 405.405 159.7C406.805 162.967 408.739 165.833 411.205 168.3C413.739 170.7 416.705 172.567 420.105 173.9C423.505 175.233 427.205 175.9 431.205 175.9C434.939 175.9 438.505 175.333 441.905 174.2C445.372 173 448.572 171.033 451.505 168.3L457.205 175.9C453.739 178.833 449.672 181.067 445.005 182.6C440.405 184.067 435.639 184.8 430.705 184.8ZM447.605 174.6V148.6H457.205V175.9L447.605 174.6ZM465.752 184L497.452 114H507.352L539.152 184H528.652L500.352 119.6H504.352L476.052 184H465.752ZM479.252 166.5L481.952 158.5H521.352L524.252 166.5H479.252Z" fill="#EEEEEE"/>
</svg>
